<svg width="1130" height="1154" viewBox="0 0 1130 1154" fill="none" xmlns="http://www.w3.org/2000/svg">
<g clip-path="url(#clip0_10_42)">
<path d="M88.6397 93.0763C183.794 -7.6715 318.119 0.138027 318.184 0.141761C410.861 0.141761 495.055 44.6082 564.791 107.054C633.822 45.3508 719.333 1.26191 818.701 1.26188C818.701 1.26188 940.751 -5.45636 1037.05 90.8371C1133.25 187.041 1129.99 307.832 1129.99 308.057V662.999H1037.05V308.057C1037.05 307.867 1036.97 219.531 966.505 154.659C895.963 89.7178 818.701 91.9572 818.701 91.9572C749.816 91.5776 684.6 126.353 629.619 174.672C714.733 277.113 766.074 398.297 766.074 460.335C770.553 536.474 705.039 662.999 564.523 662.999C448.072 662.999 362.973 555.509 367.451 460.335C367.451 403.96 415.258 278.393 502.036 172.812C448.638 124.491 386.259 90.912 318.184 90.8371C318.184 90.8371 228.645 90.8368 161.422 156.899C94.2728 222.888 95.356 307.871 95.3584 308.057V662.999H-0.938447V308.057C-0.949154 307.837 -6.44589 193.751 88.6397 93.0763ZM565.645 241.995C565.645 241.995 462.629 378.597 458.15 461.454C458.15 490.566 474.947 568.944 565.645 568.944C656.342 568.944 672.019 493.925 672.019 461.454C672.018 380.905 565.825 242.23 565.645 241.995Z" fill="#1C1B19"/>
<path d="M214.711 1096.68L259.431 956.28C264.978 938.773 266.625 926.9 264.371 920.66C262.291 914.247 257.785 911.04 250.851 911.04C243.918 911.04 234.645 915.2 223.031 923.52C211.418 931.667 199.371 944.927 186.891 963.3C174.411 981.5 163.058 1005.85 152.831 1036.36C149.191 1047.28 146.418 1056.38 144.511 1063.66C142.605 1070.77 141.305 1076.57 140.611 1081.08C139.918 1085.41 139.571 1088.97 139.571 1091.74C139.571 1094.34 140.178 1096.59 141.391 1098.5C142.605 1100.41 143.211 1102.66 143.211 1105.26C143.211 1110.29 139.658 1114.45 132.551 1117.74C125.445 1120.86 115.651 1122.42 103.171 1122.42C94.6779 1122.42 89.9113 1120.25 88.8713 1115.92C88.0046 1111.59 89.3046 1104.13 92.7713 1093.56L140.611 947.7C145.465 933.313 147.285 923.347 146.071 917.8C145.031 912.253 141.998 909.48 136.971 909.48C133.505 909.48 129.258 911.127 124.231 914.42C119.378 917.54 112.965 923.693 104.991 932.88C104.298 933.573 103.691 934.093 103.171 934.44C102.825 934.787 102.305 934.873 101.611 934.7C101.265 934.527 101.178 934.18 101.351 933.66C101.525 933.14 101.785 932.533 102.131 931.84C111.491 917.8 121.891 906.967 133.331 899.34C144.945 891.713 156.385 887.9 167.651 887.9C175.451 887.9 181.345 889.72 185.331 893.36C189.491 896.827 191.571 902.46 191.571 910.26C191.571 916.327 190.531 923.173 188.451 930.8C186.371 938.253 183.858 945.967 180.911 953.94C177.965 961.74 175.105 969.367 172.331 976.82C169.731 984.273 167.825 990.947 166.611 996.84L165.051 996.06C177.705 969.193 191.051 947.873 205.091 932.1C219.305 916.327 233.345 905.06 247.211 898.3C261.078 891.367 273.731 887.9 285.171 887.9C294.185 887.9 300.858 889.98 305.191 894.14C309.698 898.3 311.951 904.453 311.951 912.6C311.951 917.28 311.258 922.74 309.871 928.98C308.485 935.047 306.578 941.72 304.151 949C301.725 956.107 299.125 963.647 296.351 971.62C293.751 979.593 291.151 987.827 288.551 996.32L286.991 995.54C296.525 976.473 306.318 960.18 316.371 946.66C326.598 932.967 336.911 921.787 347.311 913.12C357.711 904.28 367.938 897.867 377.991 893.88C388.045 889.893 397.751 887.9 407.111 887.9C416.471 887.9 423.405 890.327 427.911 895.18C432.418 899.86 434.671 906.88 434.671 916.24C434.671 925.427 432.678 936.693 428.691 950.04L393.851 1064.7C388.998 1080.99 387.265 1091.65 388.651 1096.68C390.211 1101.53 393.158 1103.96 397.491 1103.96C401.305 1103.96 405.551 1102.4 410.231 1099.28C415.085 1096.16 420.978 1090.18 427.911 1081.34C428.778 1080.3 429.385 1079.61 429.731 1079.26C430.251 1078.91 430.771 1078.83 431.291 1079C431.811 1079 431.985 1079.43 431.811 1080.3C431.811 1080.99 431.465 1082.03 430.771 1083.42C423.318 1095.55 414.305 1105.09 403.731 1112.02C393.331 1118.95 381.285 1122.42 367.591 1122.42C359.271 1122.42 352.945 1120.77 348.611 1117.48C344.451 1114.01 342.198 1108.81 341.851 1101.88C341.505 1094.95 342.891 1086.19 346.011 1075.62L382.411 956.28C387.611 938.773 389.171 926.9 387.091 920.66C385.011 914.247 380.591 911.04 373.831 911.04C366.725 911.04 357.365 915.2 345.751 923.52C334.311 931.667 322.265 944.927 309.611 963.3C297.131 981.5 285.778 1005.94 275.551 1036.62C272.085 1047.02 269.398 1055.95 267.491 1063.4C265.585 1070.68 264.285 1076.75 263.591 1081.6C262.898 1086.28 262.551 1090.01 262.551 1092.78C262.551 1095.55 263.158 1097.81 264.371 1099.54C265.585 1101.27 266.191 1103.44 266.191 1106.04C266.191 1110.89 262.551 1114.97 255.271 1118.26C247.991 1121.55 238.285 1123.2 226.151 1123.2C220.605 1123.2 216.705 1122.25 214.451 1120.34C212.198 1118.61 211.158 1115.83 211.331 1112.02C211.678 1108.03 212.805 1102.92 214.711 1096.68ZM519.374 1064.7C514.174 1080.13 512.268 1090.53 513.654 1095.9C515.041 1101.27 518.074 1103.96 522.754 1103.96C526.568 1103.96 530.814 1102.4 535.494 1099.28C540.348 1096.16 546.328 1090.18 553.434 1081.34C554.301 1080.3 554.908 1079.61 555.254 1079.26C555.774 1078.91 556.294 1078.83 556.814 1079C557.334 1079 557.508 1079.43 557.334 1080.3C557.334 1080.99 556.988 1082.03 556.294 1083.42C548.668 1095.55 539.568 1105.09 528.994 1112.02C518.594 1118.95 506.548 1122.42 492.854 1122.42C484.708 1122.42 478.381 1120.77 473.874 1117.48C469.541 1114.01 467.114 1108.81 466.594 1101.88C466.248 1094.95 467.808 1086.19 471.274 1075.62L512.614 951.6C518.161 935.133 520.414 924.04 519.374 918.32C518.508 912.427 515.561 909.48 510.534 909.48C506.894 909.48 502.561 911.127 497.534 914.42C492.681 917.54 486.268 923.693 478.294 932.88C477.774 933.573 477.254 934.093 476.734 934.44C476.214 934.787 475.694 934.873 475.174 934.7C474.828 934.527 474.654 934.18 474.654 933.66C474.828 933.14 475.174 932.533 475.694 931.84C484.881 917.8 495.021 906.967 506.114 899.34C517.208 891.713 528.474 887.9 539.914 887.9C547.368 887.9 553.348 889.633 557.854 893.1C562.361 896.567 565.048 902.113 565.914 909.74C566.781 917.193 565.221 926.813 561.234 938.6L519.374 1064.7ZM552.654 849.16C546.414 849.16 541.648 847.513 538.354 844.22C535.061 840.753 533.414 836.42 533.414 831.22C533.414 825.5 535.061 819.173 538.354 812.24C541.821 805.133 546.328 799.067 551.874 794.04C557.594 788.84 563.748 786.24 570.334 786.24C577.788 786.24 583.074 787.973 586.194 791.44C589.488 794.733 591.134 798.893 591.134 803.92C591.134 810.853 589.488 817.787 586.194 824.72C582.901 831.653 578.308 837.46 572.414 842.14C566.694 846.82 560.108 849.16 552.654 849.16ZM680.66 1006.98L685.08 1008.28C679.186 1030.12 673.033 1048.41 666.62 1063.14C660.38 1077.87 653.88 1089.57 647.12 1098.24C640.533 1106.73 633.686 1112.8 626.58 1116.44C619.473 1119.91 612.02 1121.64 604.22 1121.64C593.82 1121.64 585.673 1118.95 579.78 1113.58C574.06 1108.03 571.373 1099.97 571.72 1089.4C571.893 1081.08 574.06 1073.8 578.22 1067.56C582.553 1061.32 588.1 1058.2 594.86 1058.2C599.366 1058.2 603.006 1059.76 605.78 1062.88C608.553 1066 609.94 1070.07 609.94 1075.1C609.94 1079.78 609.073 1084.55 607.34 1089.4C605.606 1094.25 604.74 1098.59 604.74 1102.4C604.74 1105.17 605.693 1107.51 607.6 1109.42C609.506 1111.15 612.28 1112.02 615.92 1112.02C621.466 1112.02 627.793 1109.16 634.9 1103.44C642.006 1097.72 649.46 1087.32 657.26 1072.24C665.06 1056.99 672.86 1035.23 680.66 1006.98ZM717.32 936.78L726.94 1062.88C727.806 1074.32 730.146 1082.99 733.96 1088.88C737.946 1094.6 744.1 1097.46 752.42 1097.46C758.66 1097.46 764.466 1095.38 769.84 1091.22C775.213 1086.89 781.453 1078.39 788.56 1065.74C789.253 1064.53 789.86 1063.83 790.38 1063.66C790.9 1063.31 791.42 1063.23 791.94 1063.4C792.46 1063.57 792.806 1064.01 792.98 1064.7C793.153 1065.39 792.98 1066.17 792.46 1067.04C786.566 1078.65 780.24 1088.62 773.48 1096.94C766.72 1105.26 759.353 1111.67 751.38 1116.18C743.58 1120.51 735.173 1122.68 726.16 1122.68C715.76 1122.68 707.613 1120.69 701.72 1116.7C696 1112.54 691.84 1106.39 689.24 1098.24C686.64 1090.09 684.82 1080.13 683.78 1068.34L674.16 946.14C673.293 932.967 671.04 923.867 667.4 918.84C663.933 913.64 658.993 911.04 652.58 911.04C645.993 911.04 639.753 913.38 633.86 918.06C627.966 922.74 621.38 931.147 614.1 943.28C613.406 944.32 612.8 945.1 612.28 945.62C611.76 945.967 611.153 946.053 610.46 945.88C609.94 945.707 609.68 945.273 609.68 944.58C609.68 943.713 609.853 942.933 610.2 942.24C616.613 930.973 623.286 921.267 630.22 913.12C637.326 904.973 644.953 898.733 653.1 894.4C661.42 890.067 670.433 887.9 680.14 887.9C687.94 887.9 694.353 889.633 699.38 893.1C704.58 896.567 708.653 901.94 711.6 909.22C714.546 916.5 716.453 925.687 717.32 936.78ZM721.48 1015.04L717.84 1014.26C724.773 989.3 731.706 968.673 738.64 952.38C745.746 936.087 752.853 923.26 759.96 913.9C767.066 904.54 774.086 897.953 781.02 894.14C788.126 890.327 795.06 888.42 801.82 888.42C812.22 888.42 820.193 891.627 825.74 898.04C831.286 904.28 833.886 912.253 833.54 921.96C833.02 932.707 830.42 941.027 825.74 946.92C821.233 952.64 815.946 955.5 809.88 955.5C805.026 955.5 801.213 954.027 798.44 951.08C795.666 948.133 794.54 944.147 795.06 939.12C795.233 934.96 796.36 930.367 798.44 925.34C800.52 920.313 801.56 915.027 801.56 909.48C801.56 906.707 800.52 904.627 798.44 903.24C796.36 901.68 793.413 900.9 789.6 900.9C785.093 900.9 780.24 902.72 775.04 906.36C770.013 910 764.64 916.153 758.92 924.82C753.2 933.313 747.22 944.927 740.98 959.66C734.913 974.393 728.413 992.853 721.48 1015.04ZM998.717 1059.5C994.037 1077.87 991.957 1089.92 992.477 1095.64C993.17 1101.19 996.03 1103.96 1001.06 1103.96C1004.87 1103.96 1009.12 1102.4 1013.8 1099.28C1018.48 1096.16 1024.28 1090.18 1031.22 1081.34C1032.08 1080.3 1032.69 1079.61 1033.04 1079.26C1033.56 1078.91 1034.08 1078.83 1034.6 1079C1035.12 1079 1035.29 1079.43 1035.12 1080.3C1035.12 1080.99 1034.77 1082.03 1034.08 1083.42C1026.62 1095.55 1017.7 1105.09 1007.3 1112.02C996.897 1118.95 985.37 1122.42 972.717 1122.42C964.224 1122.42 957.984 1120.43 953.997 1116.44C950.01 1112.45 948.017 1106.56 948.017 1098.76C948.017 1095.47 948.45 1091.13 949.317 1085.76C950.184 1080.39 951.484 1073.8 953.217 1066C955.124 1058.2 957.464 1049.19 960.237 1038.96C963.01 1028.56 966.304 1016.86 970.117 1003.86L972.197 1004.9C963.184 1028.47 953.304 1049.1 942.557 1066.78C931.984 1084.29 920.37 1097.98 907.717 1107.86C895.237 1117.57 881.544 1122.42 866.637 1122.42C850.344 1122.42 838.037 1116.09 829.717 1103.44C821.57 1090.61 819.404 1070.59 823.217 1043.38C825.124 1027.09 829.544 1011.31 836.477 996.06C843.41 980.633 852.25 966.42 862.997 953.42C873.744 940.247 885.964 928.807 899.657 919.1C913.524 909.22 928.257 901.507 943.857 895.96C959.457 890.413 975.577 887.64 992.217 887.64C1002.96 887.64 1012.41 888.42 1020.56 889.98C1028.88 891.54 1035.38 893.36 1040.06 895.44C1044.91 897.52 1047.34 899.253 1047.34 900.64C1047.34 902.2 1046.64 903.327 1045.26 904.02C1043.87 904.713 1042.48 905.493 1041.1 906.36C1039.71 907.053 1038.84 908.267 1038.5 910L998.717 1059.5ZM868.717 1050.4C865.424 1070.68 866.03 1085.24 870.537 1094.08C875.044 1102.92 881.11 1107.34 888.737 1107.34C894.977 1107.34 901.39 1104.91 907.977 1100.06C914.737 1095.21 921.584 1087.84 928.517 1077.96C935.45 1068.08 942.557 1055.6 949.837 1040.52C957.117 1025.44 964.397 1007.76 971.677 987.48C978.957 967.2 986.15 944.233 993.257 918.58C995.51 910.26 996.204 903.847 995.337 899.34C994.644 894.833 991.35 892.58 985.457 892.58C974.537 892.58 963.877 895.527 953.477 901.42C943.077 907.313 933.284 915.373 924.097 925.6C914.91 935.827 906.504 947.7 898.877 961.22C891.424 974.567 885.097 988.867 879.897 1004.12C874.697 1019.2 870.97 1034.63 868.717 1050.4Z" fill="#1C1B19"/>
</g>
<defs>
<clipPath id="clip0_10_42">
<rect width="1130" height="1154" fill="white"/>
</clipPath>
</defs>
</svg>
